PathFileType	4	(X/Y/Z)	/Users/visionmauri/1_1_1_f_Sports2D/1_1_1_f_Sports2D_m_person00.trc
DataRate	CameraRate	NumFrames	NumMarkers	Units	OrigDataRate	OrigDataStartFrame	OrigNumFrames
30.0	30.0	9	22	m	30.0	134	358
Frame#	Time	Hip			RHip			RKnee			RAnkle			RBigToe			RSmallToe			RHeel			LHip			LKnee			LAnkle			LBigToe			LSmallToe			LHeel			Neck			Head			Nose			RShoulder			RElbow			RWrist			LShoulder			LElbow			LWrist			
		X1	Y1	Z1	X2	Y2	Z2	X3	Y3	Z3	X4	Y4	Z4	X5	Y5	Z5	X6	Y6	Z6	X7	Y7	Z7	X8	Y8	Z8	X9	Y9	Z9	X10	Y10	Z10	X11	Y11	Z11	X12	Y12	Z12	X13	Y13	Z13	X14	Y14	Z14	X15	Y15	Z15	X16	Y16	Z16	X17	Y17	Z17	X18	Y18	Z18	X19	Y19	Z19	X20	Y20	Z20	X21	Y21	Z21	X22	Y22	Z22
134	4.4791783380018675	0.6441595379441549	0.879472860935337	0.0301	0.7214905751909702	0.9038229356336286	0.0301	0.8512037312762863	0.5499483507037461	0.129	0.973434665559957	0.19086682208308503	0.023	0.9611344693036052	0.1400835250850353	0.2179	1.0294575436196212	0.14459710552660482	0.1804	0.989960666829967	0.1307140251209998	-0.0119	0.5684348563225579	0.8426144459560452	0.0301	0.6749045086111884	0.5748727310242747	0.129	0.8227873024317384	0.25142958394849246	0.023	0.8640838852383301	0.16716004172853616	0.2179	0.8163986804032353	0.14204771822083828	0.1804	0.8594236419652291	0.18920673473439817	-0.0119	0.4620860589840578	1.2922172144290804	0.0008	0.3562281302359812	1.444333135268464	0.0655	0.36337411255226765	1.327621191092442	0.1076	0.6332513403266896	1.293203339741027	-0.01275	0.8019561191140886	1.0981969078296183	0.0702	0.8557174082883006	0.9549185233584275	0.1076	0.357431678559031	1.1813548354874013	-0.01275	0.3901953580064861	0.937012902170574	0.0702	0.398669647886165	0.9394477393711973	0.1076
135	4.512605042016807	0.6421657444500259	0.8799514746603148	0.0301	0.719663126151229	0.9025158918146995	0.0301	0.8484340745476899	0.5541341024723712	0.129	0.9726862208562159	0.19348713172472112	0.023	0.9578179499444828	0.13870337302359606	0.2179	1.026748772020027	0.14473628471764177	0.1804	0.9900068702748195	0.1350982488619845	-0.0119	0.5682368405783816	0.8412216595734258	0.0301	0.6741334011583925	0.574258114389087	0.129	0.8140703321515655	0.2704152264181723	0.023	0.8696691333442994	0.15625334040240643	0.2179	0.8057802193589179	0.16431605590816262	0.1804	0.8480249231051435	0.21291862361357278	-0.0119	0.4586982750825163	1.289741240714933	0.0008	0.3492974559081245	1.4409753483585488	0.0655	0.35415516373659467	1.3213953442856374	0.1076	0.6273956186520668	1.2929781991859826	-0.01275	0.7961581837553041	1.104554381782858	0.0702	0.8544023969366726	0.9574700022693613	0.1076	0.3565740074333366	1.179075829690813	-0.01275	0.3905034798214128	0.9351960405522955	0.0702	0.39647631446211634	0.9371139315197713	0.1076
136	4.546031746031746	0.6400403410636532	0.8819856976026963	0.0301	0.71801542986631	0.9022794402654795	0.0301	0.8470868290782005	0.5592736795386185	0.129	0.9704942743965608	0.19926717540433247	0.023	0.9574629927446254	0.13739180494464268	0.2179	1.023883690091941	0.14638323546105575	0.1804	0.9875347823503943	0.14289407244321883	-0.0119	0.5677825359162479	0.8415347758310113	0.0301	0.6714853648183169	0.5743814602177375	0.129	0.7774372034903178	0.3545949822157997	0.023	0.852912127302528	0.19191026209111195	0.2179	0.7639715445328993	0.25993761195640164	0.1804	0.8016325071086812	0.3221448367408337	-0.0119	0.45564573697327576	1.2868814281651872	0.0008	0.3424419487131282	1.4369430160262848	0.0655	0.34715209760564003	1.3149043889762178	0.1076	0.6217175852154296	1.2929033503157028	-0.01275	0.7909589026691898	1.1098952362768832	0.0702	0.8536740078097022	0.9590100215883074	0.1076	0.35448208574657547	1.177588712757771	-0.01275	0.39056529067599377	0.9339155669574396	0.0702	0.3945985149332505	0.9354010477312132	0.1076
137	4.579458450046685	0.6385545387505911	0.8841904887783237	0.0301	0.7163059306284253	0.9051953152082213	0.0301	0.8482244467898422	0.5652276131891691	0.129	0.9664903198975534	0.2114831190556243	0.023	0.9571899722760411	0.13835706674456755	0.2179	1.021440928769754	0.1504742777941939	0.1804	0.9819564808892379	0.15563372197810388	-0.0119	0.5667337032900016	0.8437674172120401	0.0301	0.6684700760482805	0.5750871328613429	0.129	0.7244290856605115	0.47745285552799865	0.023	0.794768620688531	0.3147619640340417	0.2179	0.7031526466553553	0.40187223578390213	0.1804	0.7380014463971198	0.4739791336620357	-0.0119	0.45219256389025086	1.2848469658158892	0.0008	0.3361984408482379	1.4325248921617997	0.0655	0.3410792252910521	1.310042621135597	0.1076	0.6167098814821885	1.2926018199406355	-0.01275	0.7882308558881261	1.1126380218527496	0.0702	0.8542027563850791	0.9584966515002119	0.1076	0.3523318262084951	1.1768401189659474	-0.01275	0.38992161369194606	0.9344519881632781	0.0702	0.39377025437065816	0.9345204142008074	0.1076
138	4.612885154061624	0.6373062927295321	0.8863817276043452	0.0301	0.713961739306471	0.9106420910435988	0.0301	0.8504022435641925	0.5724467556595785	0.129	0.9615470113060799	0.23255335114548636	0.023	0.9559903305529851	0.14065881099090735	0.2179	1.0220010670796567	0.1550365360228088	0.1804	0.9747472920494924	0.17629782826904503	-0.0119	0.5653157730899254	0.8477737437740369	0.0301	0.6669789727779334	0.576125735472933	0.129	0.6868793334234535	0.5625866426796639	0.023	0.7289622096360797	0.45036139232909556	0.2179	0.6696006454104593	0.48218868186854413	0.1804	0.7071626672068285	0.5437955539991818	-0.0119	0.44852355622853335	1.283208150367122	0.0008	0.3301071575309176	1.4281860373557214	0.0655	0.3356855606237869	1.3075743319928237	0.1076	0.6119921192505849	1.2912629771430344	-0.01275	0.7861313077282173	1.1144388153590516	0.0702	0.8549537303743634	0.9584437248549021	0.1076	0.3509067595347738	1.1767584239948308	-0.01275	0.38951967200917365	0.9360572041958546	0.0702	0.39385032779896406	0.930960052129907	0.1076
139	4.646311858076563	0.6356979898072823	0.8868669161802963	0.0301	0.7113497246375288	0.9140123186269171	0.0301	0.8508955832999292	0.581372120146836	0.129	0.9570676663532769	0.2612048070900751	0.023	0.9559919118601569	0.14246624659499274	0.2179	1.0257189272567777	0.15896153902439325	0.1804	0.9679890909318283	0.20439175339653404	-0.0119	0.5647065424579752	0.8505188566517965	0.0301	0.667248037100464	0.5768772131042929	0.129	0.6766138621511449	0.5829900046309289	0.023	0.7205010819491938	0.4566200353254151	0.2179	0.6850741314237163	0.45095577411472076	0.1804	0.7269883461129967	0.4912662753909903	-0.0119	0.44540198048193236	1.2804354555289776	0.0008	0.32369319701823984	1.423994525122608	0.0655	0.3319219577306391	1.3063373424352123	0.1076	0.6066810623100297	1.288714831580718	-0.01275	0.7827574030676212	1.1173331239246258	0.0702	0.8546373960402893	0.9597808074380378	0.1076	0.3498021380101383	1.1761993327788038	-0.01275	0.3900948824609063	0.9369264038126396	0.0702	0.3949467656764977	0.9231741656351611	0.1076
140	4.6797385620915035	0.6341106968685872	0.8845975806334025	0.0301	0.7093506485286425	0.9132042061773503	0.0301	0.8489317602196703	0.5915138653233228	0.129	0.9536223383412389	0.2931520271906914	0.023	0.9589921195930095	0.14527199340231925	0.2179	1.027367642116157	0.16644689934767415	0.1804	0.9630053067006596	0.23458371544642176	-0.0119	0.5652500788758328	0.849787447887428	0.0301	0.6674140825675515	0.5781068467919935	0.129	0.6794245418995684	0.5762621326307913	0.023	0.7709143497227924	0.3330348634098693	0.2179	0.71282910573953	0.3926210000044669	0.1804	0.7532482936530651	0.43095914451596723	-0.0119	0.44305006040790096	1.2765597621535227	0.0008	0.3174722243134268	1.4200129424320713	0.0655	0.3289672622822541	1.3039824120981196	0.1076	0.6014006345568801	1.2859630680271974	-0.01275	0.7786916953543418	1.1209725812084654	0.0702	0.8536964037111955	0.9599844760414651	0.1076	0.348738589631634	1.1731936051479623	-0.01275	0.3910264026732472	0.9365521218509191	0.0702	0.39682392289892443	0.9158992761183579	0.1076
141	4.713165266106443	0.6334588396210513	0.8830211063117085	0.0301	0.7083831088248658	0.9126669943418463	0.0301	0.8456109546400867	0.6012693472309983	0.129	0.9507105929683369	0.32359330038354894	0.023	0.9638272894912489	0.15308113205935392	0.2179	1.024052317702036	0.1821359856131537	0.1804	0.9601647525287863	0.2625123729337465	-0.0119	0.5653650980821726	0.8488500788704764	0.0301	0.665796496395204	0.5827883420463956	0.129	0.6847990708837991	0.5691225917712005	0.023	0.8180229391189103	0.22037468985395695	0.2179	0.7223097666558306	0.3741049187531329	0.1804	0.7451002225600203	0.4606428508751631	-0.0119	0.4412940816090349	1.2731227092744857	0.0008	0.31191582278591373	1.4166409627856424	0.0655	0.32525361597201935	1.299198884014784	0.1076	0.5979199388681331	1.2845994030304317	-0.01275	0.7754746310162967	1.1243075791092016	0.0702	0.8529016982313075	0.9589645981142007	0.1076	0.3481369350632257	1.1679369807178688	-0.01275	0.3920019631719134	0.935237426988578	0.0702	0.3987166367281522	0.9125848895457729	0.1076
142	4.746591970121382	0.6339180532186313	0.8862107072667749	0.0301	0.708517786465263	0.916558084135376	0.0301	0.8419036392394915	0.6090301833923761	0.129	0.9489238364329908	0.34716704895473594	0.023	0.9684551997924765	0.17038786157189487	0.2179	1.020210077674483	0.205791775696029	0.1804	0.9606719968872353	0.2851284317176221	-0.0119	0.5647739453380708	0.8518596495643616	0.0301	0.6636011225465978	0.59121872614545	0.129	0.6991883342049697	0.5422785223701012	0.023	0.8288518424598923	0.19268305753757659	0.2179	0.7351478704097201	0.3426488636171993	0.1804	0.718907383262161	0.532131339737783	-0.0119	0.43987755051539823	1.2709542583634967	0.0008	0.30647096736157475	1.4143025692216833	0.0655	0.3213531580543174	1.2941649002416953	0.1076	0.5960588328532661	1.2854249355476834	-0.01275	0.7741004460683044	1.1284436786411252	0.0702	0.8515432639625281	0.9609694966133708	0.1076	0.3479826333028244	1.1636575614300422	-0.01275	0.39431483613593904	0.9331395053328319	0.0702	0.4002650506038482	0.9112274209013385	0.1076
